<?xml version="1.0" standalone="no"?>
<svg xmlns="http://www.w3.org/2000/svg" viewBox="0 0 78.58 29" width="78.58" height="29"><g fill="#64c568" color="#64c568" transform="translate(0, 0) scale(0.5686275)"><svg width="44.0" height="51.0" x="0.0" y="0.0" viewBox="0 0 44 51"><path fill="currentColor" fill-rule="evenodd" d="M21.986 0L44 12.704v25.393L22.029 50.801.014 38.111 0 12.718 21.986 0zM22 7.428L6.43 16.425V34.42l15.599 8.996 15.555-9.01-.014-17.994L22 7.428zm-.001 5.403l10.907 6.302v12.561l-10.907 6.302-10.893-6.288-.015-12.575L22 12.83z"></path></svg></g><line x1="37.02" y1="1" x2="37.02" y2="28" stroke="#000000" stroke-linecap="round"></line><path fill="#000000" fill-rule="nonzero" d="M3.53 18.19L0 18.48L0 0.62L3.53 0.34L3.53 18.19ZM18.19 18.19L15.29 18.48L10.03 7.22L10.03 18.19L6.89 18.34L6.89 0.48L10.56 0.34L15.22 11.04L15.22 0.62L18.19 0.34L18.19 18.19ZM26.45 18.67Q23.35 18.67 22.09 15.86Q20.83 13.06 20.83 8.95L20.83 8.95Q20.83 6.74 21.41 4.70Q21.98 2.66 23.27 1.33Q24.55 0 26.52 0L26.52 0Q28.03 0 29.17 0.94Q30.31 1.87 30.92 3.37Q31.54 4.87 31.54 6.50L31.54 6.50L28.13 6.67Q28.13 5.59 27.77 4.21Q27.41 2.83 26.33 2.83L26.33 2.83Q25.20 2.83 24.77 4.63Q24.34 6.43 24.34 8.95L24.34 8.95Q24.34 12.07 24.82 13.96Q25.30 15.84 26.66 15.84L26.66 15.84Q27.62 15.84 28.03 14.70Q28.44 13.56 28.56 11.93L28.56 11.93L31.56 12.22Q31.56 13.94 30.98 15.42Q30.41 16.90 29.26 17.78Q28.10 18.67 26.45 18.67L26.45 18.67Z" transform="translate(47.02, 5.164)"></path></svg>